<svg id="Layer_1" data-name="Layer 1" xmlns="http://www.w3.org/2000/svg" xmlns:xlink="http://www.w3.org/1999/xlink" viewBox="0 0 1000 1000"><defs><style>.cls-1{fill:url(#linear-gradient);}.cls-2{fill:#fff;}</style><linearGradient id="linear-gradient" y1="1000" x2="1000" gradientUnits="userSpaceOnUse"><stop offset="0" stop-color="#733fff"/><stop offset="0.8" stop-color="#ed6c30"/><stop offset="1" stop-color="#f05123"/></linearGradient></defs><rect class="cls-1" width="1000" height="1000"/><path class="cls-2" d="M201.58,365.59H224.5L122.92,635H100Z"/><path class="cls-2" d="M276.69,365.59H299.6L198,635H175.1Z"/><path class="cls-2" d="M357,631.68l17.15-29.85c9,6.28,18.31,10.7,30.59,10.7,20.47,0,31.15-11.19,36.73-38.44l21.89-109.2H400.21l7-33.06h105L482.94,577.3c-8.95,44.37-31.81,68.9-75.68,68.9C384.34,646.2,367.52,638.86,357,631.68ZM467.61,383.21c0-15.71,13.71-29.41,31-29.41,15.75,0,27.12,8.42,27.12,24.09,0,16.77-13.93,29.42-31.28,29.42C480.49,407.31,467.61,399.41,467.61,383.21Z"/><path class="cls-2" d="M568.9,522c0-56.38,43.89-93.9,93.65-93.9,27.44,0,48.07,13.81,59.13,28.06l-25.77,23.46c-10.16-11.4-22.54-16.87-36.46-16.87-23.82,0-47.63,24.1-47.63,55.35,0,24.78,16.87,36.42,36.7,36.42,15.42,0,26.91-7.47,38.84-17.4l15,28.71c-15.34,14.33-35.85,23.35-60,23.35C602.29,589.2,568.9,566.9,568.9,522Z"/><path class="cls-2" d="M747.88,561l23.32-26.57c15.89,16.19,35.08,23.26,54.08,23.26,14.35,0,23.14-4.3,23.14-12.9,0-9-7.63-12.75-30.26-20-31.06-10.08-47.9-23.9-47.9-47.19,0-32.6,30.4-49.44,64.86-49.44,29.92,0,50.62,11.1,64.88,25.13l-23.15,24.93c-12.39-10.17-29.06-18.52-46.44-18.52-12.36,0-20.34,4.25-20.34,12.65s8.54,12.31,32.25,20.45c27.52,9.29,45.91,21.08,45.91,46.22,0,34.75-30.64,50.22-70,50.22C789.56,589.2,764.44,578.13,747.88,561Z"/></svg>